HIERARCHY
ROOT Hips
{
  OFFSET 5.91407 39.2545 -15.4989
  CHANNELS 6 Xposition Yposition Zposition Zrotation Xrotation Yrotation
  JOINT LeftHip
  {
    OFFSET 3.43 0 0
    CHANNELS 6 Xposition Yposition Zposition Zrotation Xrotation Yrotation
    JOINT LeftKnee
    {
      OFFSET 0 -18.47 0
      CHANNELS 6 Xposition Yposition Zposition Zrotation Xrotation Yrotation
      JOINT LeftAnkle
      {
        OFFSET 0 -17.95 0
        CHANNELS 6 Xposition Yposition Zposition Zrotation Xrotation Yrotation
        End Site
        {
          OFFSET 0 -3.12 0
        }
      }
    }
  }
  JOINT RightHip
  {
    OFFSET -3.43 0 0
    CHANNELS 6 Xposition Yposition Zposition Zrotation Xrotation Yrotation
    JOINT RightKnee
    {
      OFFSET 0 -18.47 0
      CHANNELS 6 Xposition Yposition Zposition Zrotation Xrotation Yrotation
      JOINT RightAnkle
      {
        OFFSET 0 -17.95 0
        CHANNELS 6 Xposition Yposition Zposition Zrotation Xrotation Yrotation
        End Site
        {
          OFFSET 0 -3.12 0
        }
      }
    }
  }
  JOINT Chest
  {
    OFFSET 0 4.57 0
    CHANNELS 6 Xposition Yposition Zposition Zrotation Xrotation Yrotation
    JOINT CS_BVH
    {
      OFFSET 0 6.57 0
      CHANNELS 6 Xposition Yposition Zposition Zrotation Xrotation Yrotation
      JOINT LeftCollar
      {
        OFFSET 1.06 4.19 1.76
        CHANNELS 6 Xposition Yposition Zposition Zrotation Xrotation Yrotation
        JOINT LeftShoulder
        {
          OFFSET 5.81 0 0
          CHANNELS 6 Xposition Yposition Zposition Zrotation Xrotation Yrotation
          JOINT LeftElbow
          {
            OFFSET 0 -12.08 0
            CHANNELS 6 Xposition Yposition Zposition Zrotation Xrotation Yrotation
            JOINT LeftWrist
            {
              OFFSET 0 -9.82 0
              CHANNELS 6 Xposition Yposition Zposition Zrotation Xrotation Yrotation
              End Site
              {
                OFFSET 0 -7.37 0
              }
            }
          }
        }
      }
      JOINT RightCollar
      {
        OFFSET -1.06 4.19 1.76
        CHANNELS 6 Xposition Yposition Zposition Zrotation Xrotation Yrotation
        JOINT RightShoulder
        {
          OFFSET -6.06 0 0
          CHANNELS 6 Xposition Yposition Zposition Zrotation Xrotation Yrotation
          JOINT RightElbow
          {
            OFFSET 0 -11.08 0
            CHANNELS 6 Xposition Yposition Zposition Zrotation Xrotation Yrotation
            JOINT RightWrist
            {
              OFFSET 0 -9.82 0
              CHANNELS 6 Xposition Yposition Zposition Zrotation Xrotation Yrotation
              End Site
              {
                OFFSET 0 -7.14001 0
              }
            }
          }
        }
      }
      JOINT Neck
      {
        OFFSET 0 4.05 0
        CHANNELS 6 Xposition Yposition Zposition Zrotation Xrotation Yrotation
        JOINT Head
        {
          OFFSET 0 5.19 0
          CHANNELS 6 Xposition Yposition Zposition Zrotation Xrotation Yrotation
          End Site
          {
            OFFSET 0 4.14001 0
          }
        }
      }
    }
  }
}
MOTION
Frames:	4
Frame Time:	0.0333333
-22.6972 39.105 -34.053 0.394119 -4.94108 96.9652 3.43 9.12756e-010 -1.60032e-011 5.21863 -20.4456 -1.67706 1.57372e-008 -18.47 1.10541e-007 -1.67919 45.0255 5.92288 1.5558e-008 -17.95 3.38894e-008 -2.53837 -21.85 -1.11026 -3.43 -9.12749e-010 1.60023e-011 -3.1561 -10.2338 2.55944 4.27853e-008 -18.47 -1.42709e-007 3.44805 26.2537 3.48789 -2.59563e-008 -17.95 2.98131e-008 4.30228 -16.8912 0.702712 -1.05168e-009 4.57 4.29798e-011 -3.37889 6.58705 -0.809218 -1.67976e-009 6.57 2.67812e-010 -2.21029 12.8999 -1.53078 1.06 4.19 1.76 -0.20209 16.7518 -6.68703 5.81 -5.77685e-010 -2.42139e-010 37.4069 -30.2742 -7.98524 -4.70036e-009 -12.08 6.73172e-010 39.283 -45.6754 22.309 -1.10605e-009 -9.82 -1.29618e-009 -7.22623 1.76152 -0.378613 -1.06 4.19 1.76 13.681 15.7136 -2.94605 -6.06 -5.89036e-008 -4.70616e-010 -32.3655 -4.89089 -3.97805 -7.10448e-009 -11.08 -5.62306e-011 -15.1437 -52.316 19.4294 -1.10928e-009 -9.82 1.29577e-009 0.0521842 -5.09245 0.10932 4.66962e-010 4.05 1.19922e-010 4.65586 17.7403 -25.1 3.38399e-009 5.19 -2.27068e-010 16.3987 10.7684 -23.4886 
-22.8399 38.8712 -34.5999 0.69647 -5.458 93.4269 3.43 9.12756e-010 -1.60032e-011 6.01368 -18.8377 -1.56936 1.57372e-008 -18.47 1.10541e-007 1.38517 42.937 7.12111 1.5558e-008 -17.95 3.38894e-008 -5.63966 -23.5326 -1.54317 -3.43 -9.12749e-010 1.60023e-011 -3.46435 -11.727 3.12195 4.27853e-008 -18.47 -1.42709e-007 3.10582 28.4635 6.61037 -2.59563e-008 -17.95 2.98131e-008 4.76012 -17.5014 0.756819 -1.05168e-009 4.57 4.29798e-011 -3.16378 6.33115 -0.607047 -1.67976e-009 6.57 2.67812e-010 -2.28975 12.3991 -1.13856 1.06 4.19 1.76 -1.07197 16.1776 -5.55991 5.81 -5.77685e-010 -2.42139e-010 34.0968 -28.5559 -8.35211 -4.70036e-009 -12.08 6.73172e-010 39.1468 -44.9068 20.1451 -1.10605e-009 -9.82 -1.29618e-009 -10.9736 2.22599 -0.519873 -1.06 4.19 1.76 12.7164 15.3382 -1.76264 -6.06 -5.89036e-008 -4.70616e-010 -31.593 -5.3826 -4.052 -7.10448e-009 -11.08 -5.62306e-011 -15.3766 -52.5007 17.9362 -1.10928e-009 -9.82 1.29577e-009 -0.954754 -5.32368 0.124261 4.66962e-010 4.05 1.19922e-010 4.16287 16.8263 -23.7694 3.38399e-009 5.19 -2.27068e-010 17.262 11.2757 -23.3812 
-23.0357 38.478 -35.2232 1.84415 -5.792 90.3913 3.43 9.12756e-010 -1.60032e-011 7.5724 -19.6515 -0.885514 1.57372e-008 -18.47 1.10541e-007 -0.982205 47.5402 8.03317 1.5558e-008 -17.95 3.38894e-008 -5.24133 -25.6814 -1.66969 -3.43 -9.12749e-010 1.60023e-011 -3.75823 -13.6148 3.82089 4.27853e-008 -18.47 -1.42709e-007 2.63378 32.8452 9.28886 -2.59563e-008 -17.95 2.98131e-008 5.31398 -19.0889 0.884261 -1.05168e-009 4.57 4.29798e-011 -3.25826 6.42193 -0.503565 -1.67976e-009 6.57 2.67812e-010 -2.377 12.553 -1.01121 1.06 4.19 1.76 -2.09845 16.3794 -4.75038 5.81 -5.77685e-010 -2.42139e-010 31.7576 -26.5784 -8.46183 -4.70036e-009 -12.08 6.73172e-010 38.7424 -44.0565 18.5874 -1.10605e-009 -9.82 -1.29618e-009 -14.017 2.95371 -0.585272 -1.06 4.19 1.76 12.8707 15.541 -1.36759 -6.06 -5.89036e-008 -4.70616e-010 -32.284 -6.23646 -3.67102 -7.10448e-009 -11.08 -5.62306e-011 -15.6041 -53.3064 17.2676 -1.10928e-009 -9.82 1.29577e-009 -1.34039 -4.90242 0.12389 4.66962e-010 4.05 1.19922e-010 3.94362 16.3521 -22.873 3.38399e-009 5.19 -2.27068e-010 17.448 11.2046 -22.6899 
-23.38 38.2034 -35.8216 3.38807 -4.7327 89.2393 3.43 9.12756e-010 -1.60032e-011 4.06944 -19.6787 -1.88378 1.57372e-008 -18.47 1.10541e-007 0.523319 49.8811 11.2441 1.5558e-008 -17.95 3.38894e-008 -6.1802 -25.9617 -1.8327 -3.43 -9.12749e-010 1.60023e-011 -5.01756 -14.4315 3.78164 4.27853e-008 -18.47 -1.42709e-007 0.938147 36.0297 11.7046 -2.59563e-008 -17.95 2.98131e-008 6.50947 -20.26 1.04637 -1.05168e-009 4.57 4.29798e-011 -3.46286 6.88748 -0.838364 -1.67976e-009 6.57 2.67812e-010 -2.91429 13.4808 -1.64805 1.06 4.19 1.76 -5.18622 17.7411 -5.56026 5.81 -5.77685e-010 -2.42139e-010 32.865 -24.3298 -7.67608 -4.70036e-009 -12.08 6.73172e-010 37.5641 -43.1704 17.7178 -1.10605e-009 -9.82 -1.29618e-009 -15.1277 3.95417 -0.511487 -1.06 4.19 1.76 12.0699 16.4251 -2.4611 -6.06 -5.89036e-008 -4.70616e-010 -31.6844 -8.80032 -3.07795 -7.10448e-009 -11.08 -5.62306e-011 -15.6247 -53.4174 17.5491 -1.10928e-009 -9.82 1.29577e-009 -1.68799 -4.17734 0.128125 4.66962e-010 4.05 1.19922e-010 3.15845 16.0599 -23.4813 3.38399e-009 5.19 -2.27068e-010 17.628 11.6732 -21.9078 
